<svg xmlns="http://www.w3.org/2000/svg" width="339" height="339" fill="none" viewBox="0 0 339 339">
  <g filter="url(#a)">
    <rect width="315" height="315" x="12" y="12" fill="#EDF1E4" rx="8" shape-rendering="crispEdges"/>
    <g clip-path="url(#b)">
      <path fill="#43483E" d="M44 44.042c5.053 0 9.56 2.84 11.76 7.333A13.012 13.012 0 0 1 44 58.708c-5.067 0-9.56-2.84-11.76-7.333A13.027 13.027 0 0 1 44 44.042Zm0-2.667c-6.667 0-12.36 4.147-14.667 10 2.307 5.853 8 10 14.667 10s12.36-4.147 14.667-10c-2.307-5.853-8-10-14.667-10Zm0 6.667a3.334 3.334 0 0 1 0 6.666 3.334 3.334 0 0 1 0-6.666Zm0-2.667c-3.307 0-6 2.693-6 6s2.693 6 6 6 6-2.693 6-6-2.693-6-6-6Z"/>
    </g>
    <path fill="#43483E" d="M79.672 43.656v14.219h-1.885V43.656h1.885Zm7.578 3.653v1.386h-5.713V47.31h5.713Zm-3.78-2.569h1.807v10.518c0 .358.056.628.166.81a.795.795 0 0 0 .43.362 1.8 1.8 0 0 0 .566.088c.15 0 .306-.013.47-.04.168-.032.295-.058.38-.078l.01 1.475a4.221 4.221 0 0 1-.567.127 4.312 4.312 0 0 1-.83.068c-.442 0-.85-.088-1.22-.263-.371-.176-.668-.47-.889-.88-.215-.416-.322-.976-.322-1.679V44.74Zm10.284 13.33c-.736 0-1.403-.123-2.002-.37a4.537 4.537 0 0 1-1.533-1.065 4.736 4.736 0 0 1-.977-1.621 5.945 5.945 0 0 1-.342-2.051v-.41c0-.86.127-1.625.381-2.295a5.16 5.16 0 0 1 1.035-1.719 4.434 4.434 0 0 1 1.485-1.064 4.263 4.263 0 0 1 1.718-.362c.756 0 1.407.13 1.954.39a3.56 3.56 0 0 1 1.357 1.095c.352.462.612 1.009.781 1.64.17.625.254 1.309.254 2.051v.81h-7.89v-1.474h6.084v-.137a4.504 4.504 0 0 0-.293-1.367 2.458 2.458 0 0 0-.782-1.094c-.358-.286-.846-.43-1.465-.43a2.46 2.46 0 0 0-2.021 1.026c-.247.339-.44.752-.576 1.24-.137.489-.205 1.052-.205 1.69v.41c0 .501.068.973.205 1.416.143.436.348.82.615 1.152.273.332.602.593.986.782a3.03 3.03 0 0 0 1.329.283c.638 0 1.178-.13 1.62-.39.443-.261.83-.61 1.163-1.046l1.093.87a5.056 5.056 0 0 1-.869.986 4.148 4.148 0 0 1-1.298.761c-.508.196-1.11.293-1.807.293Zm8.017-8.662v8.467h-1.816V47.309h1.719l.097 2.1Zm-.371 2.783-.839-.029c.006-.722.1-1.39.283-2.002a4.747 4.747 0 0 1 .81-1.611 3.601 3.601 0 0 1 1.338-1.055c.534-.254 1.153-.38 1.856-.38.494 0 .95.07 1.367.214.417.137.778.355 1.084.654.306.3.543.684.713 1.153.169.468.254 1.035.254 1.699v7.041h-1.807v-6.953c0-.553-.094-.996-.283-1.328a1.623 1.623 0 0 0-.781-.723c-.339-.156-.736-.234-1.192-.234-.534 0-.98.094-1.338.283a2.26 2.26 0 0 0-.859.781 3.523 3.523 0 0 0-.469 1.143 6.398 6.398 0 0 0-.137 1.347Zm6.846-.996-1.211.371a5.345 5.345 0 0 1 .283-1.67 4.53 4.53 0 0 1 .811-1.425 3.833 3.833 0 0 1 1.318-.987c.521-.247 1.117-.37 1.787-.37.567 0 1.068.074 1.504.224.443.15.814.38 1.114.693.306.306.537.7.693 1.182.156.482.234 1.055.234 1.719v6.943h-1.816v-6.963c0-.592-.095-1.051-.283-1.377a1.478 1.478 0 0 0-.782-.693c-.332-.137-.729-.205-1.191-.205a2.56 2.56 0 0 0-1.055.205 2.175 2.175 0 0 0-.771.566 2.486 2.486 0 0 0-.479.81 3.014 3.014 0 0 0-.156.977Zm19.971-7.617v14.297h-1.807V45.834l-3.642 1.328v-1.63l5.166-1.954h.283ZM31.765 146.125c-1.036 0-1.922-.313-2.66-.939-.737-.627-1.105-1.381-1.105-2.261v-22.4h3.765v22.4H52.47v3.2H31.765Zm7.53-6.4c-1.036 0-1.922-.313-2.659-.939-.738-.627-1.107-1.381-1.107-2.261v-19.2c0-.88.37-1.634 1.107-2.261.737-.626 1.623-.939 2.658-.939h16.941c1.036 0 1.922.313 2.66.939.737.627 1.105 1.381 1.105 2.261v19.2c0 .88-.368 1.634-1.105 2.261-.738.626-1.624.939-2.66.939h-16.94Zm0-3.2h16.94v-19.2h-16.94v19.2Zm40.377-14.119v14.219h-1.885v-14.219h1.885Zm7.578 3.653v1.386h-5.713v-1.386h5.713Zm-3.78-2.569h1.807v10.518c0 .358.056.628.166.81a.795.795 0 0 0 .43.362 1.8 1.8 0 0 0 .566.088c.15 0 .306-.013.47-.039.168-.033.295-.059.38-.079l.01 1.475a4.145 4.145 0 0 1-.567.127 4.275 4.275 0 0 1-.83.068c-.442 0-.85-.088-1.22-.263-.371-.176-.668-.469-.889-.879-.215-.417-.322-.977-.322-1.68V123.49Zm10.284 13.33c-.736 0-1.403-.123-2.002-.371a4.548 4.548 0 0 1-1.533-1.064 4.737 4.737 0 0 1-.977-1.621 5.947 5.947 0 0 1-.342-2.051v-.41c0-.86.127-1.625.381-2.295a5.16 5.16 0 0 1 1.035-1.719 4.417 4.417 0 0 1 1.485-1.064 4.262 4.262 0 0 1 1.718-.362c.756 0 1.407.13 1.954.391a3.56 3.56 0 0 1 1.357 1.094c.352.462.612 1.009.781 1.64a7.83 7.83 0 0 1 .254 2.051v.811h-7.89v-1.475h6.084v-.137a4.51 4.51 0 0 0-.293-1.367 2.46 2.46 0 0 0-.782-1.094c-.358-.286-.846-.429-1.465-.429-.41 0-.787.088-1.132.263-.345.17-.642.424-.889.762-.247.339-.44.752-.576 1.24-.137.489-.205 1.052-.205 1.69v.41c0 .501.068.973.205 1.416.143.436.348.82.615 1.152.273.332.602.593.986.781.391.189.834.284 1.329.284.638 0 1.178-.131 1.62-.391.443-.26.83-.609 1.163-1.045l1.093.869a5.074 5.074 0 0 1-.869.987 4.15 4.15 0 0 1-1.298.761c-.508.196-1.11.293-1.807.293Zm8.017-8.662v8.467h-1.816v-10.566h1.719l.097 2.099Zm-.371 2.783-.839-.029c.006-.723.1-1.39.283-2.002a4.752 4.752 0 0 1 .81-1.611 3.605 3.605 0 0 1 1.338-1.055c.534-.254 1.153-.381 1.856-.381.494 0 .95.072 1.367.215.417.137.778.355 1.084.654.306.3.543.684.713 1.153.169.469.254 1.035.254 1.699v7.041h-1.807v-6.953c0-.554-.094-.996-.283-1.328a1.625 1.625 0 0 0-.781-.723c-.339-.156-.736-.234-1.192-.234-.534 0-.98.094-1.338.283a2.262 2.262 0 0 0-.859.781 3.523 3.523 0 0 0-.469 1.143 6.393 6.393 0 0 0-.137 1.347Zm6.846-.996-1.211.371a5.345 5.345 0 0 1 .283-1.67 4.528 4.528 0 0 1 .811-1.425 3.832 3.832 0 0 1 1.318-.987c.521-.247 1.117-.371 1.787-.371.567 0 1.068.075 1.504.225.443.15.814.381 1.114.693.306.306.537.7.693 1.182.156.482.234 1.055.234 1.719v6.943h-1.816v-6.963c0-.592-.095-1.051-.283-1.377a1.477 1.477 0 0 0-.782-.693c-.332-.137-.729-.205-1.191-.205a2.56 2.56 0 0 0-1.055.205 2.176 2.176 0 0 0-.771.566 2.494 2.494 0 0 0-.479.811 3.011 3.011 0 0 0-.156.976Zm23.35 5.196v1.484h-9.307v-1.299l4.658-5.185c.573-.638 1.016-1.179 1.328-1.621.319-.45.541-.85.664-1.202.131-.358.196-.722.196-1.093 0-.469-.098-.892-.293-1.27a2.2 2.2 0 0 0-.84-.918c-.371-.228-.82-.342-1.348-.342-.631 0-1.159.124-1.582.371-.416.241-.729.58-.937 1.016-.209.436-.313.938-.313 1.504h-1.806c0-.801.175-1.533.527-2.197a3.885 3.885 0 0 1 1.562-1.582c.691-.397 1.54-.596 2.549-.596.899 0 1.667.159 2.305.478.638.313 1.126.756 1.465 1.329.345.566.517 1.23.517 1.992a4 4 0 0 1-.214 1.269 6.433 6.433 0 0 1-.577 1.27c-.24.423-.524.84-.849 1.25-.319.41-.661.814-1.026 1.211l-3.808 4.131h7.129Z"/>
    <g clip-path="url(#c)">
      <path fill="#43483E" d="M295.083 122.625a2.92 2.92 0 0 0-2.916 2.917v1.25h-3.334v-1.25a2.92 2.92 0 0 0-2.916-2.917 2.92 2.92 0 0 0-2.917 2.917 2.92 2.92 0 0 0 2.917 2.916h1.25v3.334h-1.25a2.92 2.92 0 0 0-2.917 2.916 2.92 2.92 0 0 0 2.917 2.917 2.92 2.92 0 0 0 2.916-2.917v-1.25h3.334v1.25a2.92 2.92 0 0 0 2.916 2.917 2.92 2.92 0 0 0 2.917-2.917 2.92 2.92 0 0 0-2.917-2.916h-1.25v-3.334h1.25a2.92 2.92 0 0 0 2.917-2.916 2.92 2.92 0 0 0-2.917-2.917Zm-1.25 4.167v-1.25c0-.692.559-1.25 1.25-1.25.692 0 1.25.558 1.25 1.25 0 .691-.558 1.25-1.25 1.25h-1.25Zm-7.916 0c-.692 0-1.25-.559-1.25-1.25 0-.692.558-1.25 1.25-1.25.691 0 1.25.558 1.25 1.25v1.25h-1.25Zm2.916 5v-3.334h3.334v3.334h-3.334Zm6.25 4.166c-.691 0-1.25-.558-1.25-1.25v-1.25h1.25c.692 0 1.25.559 1.25 1.25 0 .692-.558 1.25-1.25 1.25Zm-9.166 0c-.692 0-1.25-.558-1.25-1.25 0-.691.558-1.25 1.25-1.25h1.25v1.25c0 .692-.559 1.25-1.25 1.25Zm22.317-3.354h1.875c-.097.898-.354 1.702-.771 2.412a4.517 4.517 0 0 1-1.768 1.689c-.761.41-1.712.615-2.851.615-.834 0-1.592-.156-2.276-.468a5.07 5.07 0 0 1-1.748-1.329c-.488-.579-.866-1.272-1.133-2.08-.26-.813-.39-1.718-.39-2.714v-1.417c0-.996.13-1.897.39-2.705.267-.813.648-1.51 1.143-2.089a5.084 5.084 0 0 1 1.807-1.338c.703-.313 1.494-.469 2.373-.469 1.074 0 1.982.202 2.724.605a4.335 4.335 0 0 1 1.729 1.68c.417.71.674 1.533.771 2.471h-1.875c-.091-.664-.26-1.234-.507-1.709a2.638 2.638 0 0 0-1.055-1.113c-.456-.261-1.052-.391-1.787-.391-.632 0-1.188.12-1.67.361a3.36 3.36 0 0 0-1.201 1.026c-.319.442-.56.973-.723 1.591a8.092 8.092 0 0 0-.244 2.061v1.436c0 .696.071 1.35.215 1.962.149.612.374 1.149.674 1.612.299.462.68.827 1.142 1.093.462.261 1.009.391 1.641.391.801 0 1.439-.127 1.914-.381a2.49 2.49 0 0 0 1.074-1.094c.247-.475.423-1.044.527-1.708Z"/>
    </g>
    <mask id="d" fill="#fff">
      <path d="M12 169.5h315v78.75H12V169.5Z"/>
    </mask>
    <path fill="#D8DCCF" d="M327 246.25H12v4h315v-4Z" mask="url(#d)"/>
    <path fill="#43483E" d="M52.552 195.542c-.341 0-.683.13-.943.39l-2.276 2.276 5.334 5.334 2.276-2.276a1.333 1.333 0 0 0 0-1.886l-3.448-3.448a1.33 1.33 0 0 0-.943-.39Zm-5.219 4.666L32 215.542v5.333h5.333l15.334-15.333-5.334-5.334Zm32.339.948v14.219h-1.885v-14.219h1.885Zm7.578 3.653v1.386h-5.713v-1.386h5.713Zm-3.78-2.569h1.807v10.518c0 .358.056.628.166.81a.795.795 0 0 0 .43.362 1.8 1.8 0 0 0 .566.088c.15 0 .306-.013.47-.039.168-.033.295-.059.38-.079l.01 1.475a4.145 4.145 0 0 1-.567.127 4.275 4.275 0 0 1-.83.068c-.442 0-.85-.088-1.22-.263-.371-.176-.668-.469-.889-.879-.215-.417-.322-.977-.322-1.68V202.24Zm10.284 13.33c-.736 0-1.403-.123-2.002-.371a4.548 4.548 0 0 1-1.533-1.064 4.737 4.737 0 0 1-.977-1.621 5.947 5.947 0 0 1-.342-2.051v-.41c0-.86.127-1.625.381-2.295a5.16 5.16 0 0 1 1.035-1.719 4.417 4.417 0 0 1 1.485-1.064 4.262 4.262 0 0 1 1.718-.362c.756 0 1.407.13 1.954.391a3.56 3.56 0 0 1 1.357 1.094c.352.462.612 1.009.781 1.64a7.83 7.83 0 0 1 .254 2.051v.811h-7.89v-1.475h6.084v-.137a4.51 4.51 0 0 0-.293-1.367 2.46 2.46 0 0 0-.782-1.094c-.358-.286-.846-.429-1.465-.429-.41 0-.787.088-1.132.263-.345.17-.642.424-.889.762-.247.339-.44.752-.576 1.24-.137.489-.205 1.052-.205 1.69v.41c0 .501.068.973.205 1.416.143.436.348.82.615 1.152.273.332.602.593.986.781.391.189.834.284 1.329.284.638 0 1.178-.131 1.62-.391.443-.26.83-.609 1.163-1.045l1.093.869a5.074 5.074 0 0 1-.869.987 4.15 4.15 0 0 1-1.298.761c-.508.196-1.11.293-1.807.293Zm8.017-8.662v8.467h-1.816v-10.566h1.719l.097 2.099Zm-.371 2.783-.839-.029c.006-.723.1-1.39.283-2.002a4.752 4.752 0 0 1 .81-1.611 3.605 3.605 0 0 1 1.338-1.055c.534-.254 1.153-.381 1.856-.381.494 0 .95.072 1.367.215.417.137.778.355 1.084.654.306.3.543.684.713 1.153.169.469.254 1.035.254 1.699v7.041h-1.807v-6.953c0-.554-.094-.996-.283-1.328a1.625 1.625 0 0 0-.781-.723c-.339-.156-.736-.234-1.192-.234-.534 0-.98.094-1.338.283a2.262 2.262 0 0 0-.859.781 3.523 3.523 0 0 0-.469 1.143 6.393 6.393 0 0 0-.137 1.347Zm6.846-.996-1.211.371a5.345 5.345 0 0 1 .283-1.67 4.528 4.528 0 0 1 .811-1.425 3.832 3.832 0 0 1 1.318-.987c.521-.247 1.117-.371 1.787-.371.567 0 1.068.075 1.504.225.443.15.814.381 1.114.693.306.306.537.7.693 1.182.156.482.234 1.055.234 1.719v6.943h-1.816v-6.963c0-.592-.095-1.051-.283-1.377a1.477 1.477 0 0 0-.782-.693c-.332-.137-.729-.205-1.191-.205a2.56 2.56 0 0 0-1.055.205 2.176 2.176 0 0 0-.771.566 2.494 2.494 0 0 0-.479.811 3.011 3.011 0 0 0-.156.976Zm16.67-1.318h1.289c.632 0 1.152-.104 1.563-.313.416-.214.725-.504.927-.869a2.5 2.5 0 0 0 .313-1.25c0-.547-.091-1.006-.274-1.377a1.821 1.821 0 0 0-.82-.839c-.365-.189-.827-.284-1.387-.284-.507 0-.957.101-1.347.303a2.219 2.219 0 0 0-.909.84c-.214.364-.322.794-.322 1.289h-1.806c0-.723.182-1.38.546-1.973a3.942 3.942 0 0 1 1.534-1.416c.664-.351 1.432-.527 2.304-.527.86 0 1.612.153 2.256.459a3.354 3.354 0 0 1 1.504 1.348c.358.592.537 1.331.537 2.216 0 .358-.084.743-.254 1.153-.162.403-.42.781-.771 1.133-.345.351-.794.641-1.348.869-.553.221-1.217.332-1.992.332h-1.543v-1.094Zm0 1.484v-1.084h1.543c.905 0 1.654.108 2.246.323.593.214 1.058.501 1.397.859a3 3 0 0 1 .722 1.182c.143.423.215.846.215 1.269 0 .664-.114 1.253-.342 1.768a3.6 3.6 0 0 1-.947 1.308 4.051 4.051 0 0 1-1.426.811 5.626 5.626 0 0 1-1.787.273 5.705 5.705 0 0 1-1.748-.263 4.527 4.527 0 0 1-1.435-.762 3.565 3.565 0 0 1-.977-1.24c-.234-.495-.352-1.058-.352-1.69h1.807c0 .495.107.928.322 1.299.222.371.534.661.938.869.41.202.892.303 1.445.303s1.029-.094 1.426-.283c.404-.196.713-.489.928-.879.221-.391.332-.882.332-1.475 0-.592-.124-1.077-.371-1.455a2.177 2.177 0 0 0-1.055-.849c-.449-.189-.98-.284-1.592-.284h-1.289Z"/>
    <g clip-path="url(#e)">
      <path fill="#43483E" d="M53.8 285.012c-.907-4.6-4.947-8.054-9.8-8.054a9.995 9.995 0 0 0-8.867 5.387A7.993 7.993 0 0 0 28 290.292c0 4.413 3.587 8 8 8h17.333A6.67 6.67 0 0 0 60 291.625c0-3.52-2.733-6.373-6.2-6.613Z"/>
    </g>
    <path fill="#43483E" d="M79.672 279.906v14.219h-1.885v-14.219h1.885Zm7.578 3.653v1.386h-5.713v-1.386h5.713Zm-3.78-2.569h1.807v10.518c0 .358.056.628.166.81a.795.795 0 0 0 .43.362 1.8 1.8 0 0 0 .566.088c.15 0 .306-.013.47-.039.168-.033.295-.059.38-.079l.01 1.475a4.145 4.145 0 0 1-.567.127 4.275 4.275 0 0 1-.83.068c-.442 0-.85-.088-1.22-.263-.371-.176-.668-.469-.889-.879-.215-.417-.322-.977-.322-1.68V280.99Zm10.284 13.33c-.736 0-1.403-.123-2.002-.371a4.548 4.548 0 0 1-1.533-1.064 4.737 4.737 0 0 1-.977-1.621 5.947 5.947 0 0 1-.342-2.051v-.41c0-.86.127-1.625.381-2.295a5.16 5.16 0 0 1 1.035-1.719 4.417 4.417 0 0 1 1.485-1.064 4.262 4.262 0 0 1 1.718-.362c.756 0 1.407.13 1.954.391a3.56 3.56 0 0 1 1.357 1.094c.352.462.612 1.009.781 1.64a7.83 7.83 0 0 1 .254 2.051v.811h-7.89v-1.475h6.084v-.137a4.51 4.51 0 0 0-.293-1.367 2.46 2.46 0 0 0-.782-1.094c-.358-.286-.846-.429-1.465-.429-.41 0-.787.088-1.132.263-.345.17-.642.424-.889.762-.247.339-.44.752-.576 1.24-.137.489-.205 1.052-.205 1.69v.41c0 .501.068.973.205 1.416.143.436.348.82.615 1.152.273.332.602.593.986.781.391.189.834.284 1.329.284.638 0 1.178-.131 1.62-.391.443-.26.83-.609 1.163-1.045l1.093.869a5.074 5.074 0 0 1-.869.987 4.15 4.15 0 0 1-1.298.761c-.508.196-1.11.293-1.807.293Zm8.017-8.662v8.467h-1.816v-10.566h1.719l.097 2.099Zm-.371 2.783-.839-.029c.006-.723.1-1.39.283-2.002a4.752 4.752 0 0 1 .81-1.611 3.605 3.605 0 0 1 1.338-1.055c.534-.254 1.153-.381 1.856-.381.494 0 .95.072 1.367.215.417.137.778.355 1.084.654.306.3.543.684.713 1.153.169.469.254 1.035.254 1.699v7.041h-1.807v-6.953c0-.554-.094-.996-.283-1.328a1.625 1.625 0 0 0-.781-.723c-.339-.156-.736-.234-1.192-.234-.534 0-.98.094-1.338.283a2.262 2.262 0 0 0-.859.781 3.523 3.523 0 0 0-.469 1.143 6.393 6.393 0 0 0-.137 1.347Zm6.846-.996-1.211.371a5.345 5.345 0 0 1 .283-1.67 4.528 4.528 0 0 1 .811-1.425 3.832 3.832 0 0 1 1.318-.987c.521-.247 1.117-.371 1.787-.371.567 0 1.068.075 1.504.225.443.15.814.381 1.114.693.306.306.537.7.693 1.182.156.482.234 1.055.234 1.719v6.943h-1.816v-6.963c0-.592-.095-1.051-.283-1.377a1.477 1.477 0 0 0-.782-.693c-.332-.137-.729-.205-1.191-.205a2.56 2.56 0 0 0-1.055.205 2.176 2.176 0 0 0-.771.566 2.494 2.494 0 0 0-.479.811 3.011 3.011 0 0 0-.156.976Zm23.643 1.895v1.484h-10.274v-1.064l6.367-9.854h1.475l-1.582 2.852-4.209 6.582h8.223Zm-1.983-9.434v14.219H128.1v-14.219h1.806Z"/>
    <g clip-path="url(#f)">
      <path fill="#43483E" d="m290 295.125 7.5-7.5-7.5-7.5v15Z"/>
    </g>
  </g>
  <defs>
    <clipPath id="b">
      <path fill="#fff" d="M28 35.375h32v32H28z"/>
    </clipPath>
    <clipPath id="c">
      <path fill="#fff" d="M283 118.125h28v24h-28z"/>
    </clipPath>
    <clipPath id="e">
      <path fill="#fff" d="M28 271.625h32v32H28z"/>
    </clipPath>
    <clipPath id="f">
      <path fill="#fff" d="M275 269.625h36v36h-36z"/>
    </clipPath>
    <filter id="a" width="339" height="339" x="0" y="0" color-interpolation-filters="sRGB" filterUnits="userSpaceOnUse">
      <feFlood flood-opacity="0" result="BackgroundImageFix"/>
      <feColorMatrix in="SourceAlpha" result="hardAlpha" values="0 0 0 0 0 0 0 0 0 0 0 0 0 0 0 0 0 0 127 0"/>
      <feMorphology in="SourceAlpha" operator="dilate" radius="4" result="effect1_dropShadow_1_28"/>
      <feOffset/>
      <feGaussianBlur stdDeviation="4"/>
      <feComposite in2="hardAlpha" operator="out"/>
      <feColorMatrix values="0 0 0 0 0 0 0 0 0 0 0 0 0 0 0 0 0 0 0.25 0"/>
      <feBlend in2="BackgroundImageFix" result="effect1_dropShadow_1_28"/>
      <feBlend in="SourceGraphic" in2="effect1_dropShadow_1_28" result="shape"/>
    </filter>
  </defs>
</svg>
